<svg width="392" height="392" viewBox="0 0 392 392" fill="none" xmlns="http://www.w3.org/2000/svg">
<rect width="392" height="392" rx="20" fill="#262626"/>
<path d="M253.748 180.435H296C296.002 169.35 293.821 158.373 289.58 148.131C285.34 137.888 279.123 128.582 271.285 120.743C263.448 112.903 254.142 106.685 243.901 102.442C233.66 98.1993 222.683 96.0156 211.598 96.0156V180.435" stroke="white" stroke-width="7" stroke-miterlimit="10"/>
<path d="M180.42 127.143C158.03 127.143 136.558 136.037 120.726 151.869C104.894 167.7 96 189.173 96 211.562C96 233.952 104.894 255.424 120.726 271.256C136.558 287.088 158.03 295.982 180.42 295.982C191.505 295.982 202.482 293.798 212.723 289.555C222.964 285.313 232.27 279.094 240.107 271.255C247.945 263.416 254.162 254.109 258.402 243.867C262.643 233.625 264.824 222.648 264.822 211.562H180.42V127.143Z" stroke="white" stroke-width="7" stroke-miterlimit="10"/>
</svg>
